<svg width="512" height="512" viewBox="0 0 512 512" fill="none" xmlns="http://www.w3.org/2000/svg">
  <defs>
    <radialGradient id="darkBackdrop" cx="50%" cy="0%" r="95%" fx="50%" fy="0%">
      <stop offset="0%" stop-color="#0f161b" />
      <stop offset="45%" stop-color="#0b1013" />
      <stop offset="100%" stop-color="#121920" />
    </radialGradient>
    <clipPath id="clipDark">
      <rect width="512" height="512" />
    </clipPath>
  </defs>
  <g clip-path="url(#clipDark)">
    <rect width="512" height="512" fill="url(#darkBackdrop)" />
    <g transform="translate(258.6 259.8) scale(1.2) translate(-258.6 -259.8)">
      <path
        d="M261.208 446.168C233.56 446.168 209.155 441.219 187.992 431.32C166.829 421.421 150.275 407.256 138.328 388.824C126.381 370.392 120.408 348.205 120.408 322.264V307.928H186.968V322.264C186.968 343.768 193.624 359.981 206.936 370.904C220.248 381.485 238.339 386.776 261.208 386.776C284.419 386.776 301.656 382.168 312.92 372.952C324.525 363.736 330.328 351.96 330.328 337.624C330.328 327.725 327.427 319.704 321.624 313.56C316.163 307.416 307.971 302.467 297.048 298.712C286.467 294.616 273.496 290.861 258.136 287.448L246.36 284.888C221.784 279.427 200.621 272.6 182.872 264.408C165.464 255.875 151.981 244.781 142.424 231.128C133.208 217.475 128.6 199.725 128.6 177.88C128.6 156.035 133.72 137.432 143.96 122.072C154.541 106.371 169.219 94.424 187.992 86.232C207.107 77.6986 229.464 73.432 255.064 73.432C280.664 73.432 303.363 77.8693 323.16 86.744C343.299 95.2773 359 108.248 370.264 125.656C381.869 142.723 387.672 164.227 387.672 190.168V205.528H321.112V190.168C321.112 176.515 318.381 165.592 312.92 157.4C307.8 148.867 300.291 142.723 290.392 138.968C280.493 134.872 268.717 132.824 255.064 132.824C234.584 132.824 219.395 136.749 209.496 144.6C199.939 152.109 195.16 162.52 195.16 175.832C195.16 184.707 197.379 192.216 201.816 198.36C206.595 204.504 213.592 209.624 222.808 213.72C232.024 217.816 243.8 221.4 258.136 224.472L269.912 227.032C295.512 232.493 317.699 239.491 336.472 248.024C355.587 256.557 370.435 267.821 381.016 281.816C391.597 295.811 396.888 313.731 396.888 335.576C396.888 357.421 391.256 376.707 379.992 393.432C369.069 409.816 353.368 422.787 332.888 432.344C312.749 441.56 288.856 446.168 261.208 446.168Z"
        fill="#1b8e6c"
      />
    </g>
  </g>
</svg>
